<?xml version="1.0" encoding="utf-8"?>
<!-- Generator: Adobe Illustrator 13.0.0, SVG Export Plug-In . SVG Version: 6.00 Build 14948)  -->
<!DOCTYPE svg PUBLIC "-//W3C//DTD SVG 1.1//EN" "http://www.w3.org/Graphics/SVG/1.1/DTD/svg11.dtd">
<svg version="1.1" id="Layer_1" xmlns="http://www.w3.org/2000/svg" xmlns:xlink="http://www.w3.org/1999/xlink" x="0px" y="0px"
	 width="24px" height="24px" viewBox="0 0 24 24" enable-background="new 0 0 24 24" xml:space="preserve">
<path d="M18,17H6v-2h12V17z M18,13H6v-2h12V13z M18,9H6V7h12V9z M3,22l1.5-1.5L6,22l1.5-1.5L9,22l1.5-1.5L12,22l1.5-1.5L15,22
	l1.5-1.5L18,22l1.5-1.5L21,22V2l-1.5,1.5L18,2l-1.5,1.5L15,2l-1.5,1.5L12,2l-1.5,1.5L9,2L7.5,3.5L6,2L4.5,3.5L3,2V22z"/>
<path fill="none" d="M0,0h24v24H0V0z"/>
<!--
<path d="M0,3.427L24,20.249" stroke-width="4px" stroke="#FFFFFF" fill="#FFFFFF"/>
<path d="M0,3.427L24,20.249" stroke-width="2px" stroke="#000000" fill="none" /> -->
<!--
<g>
	<g>
		<line fill="#FFFFFF" stroke="#FFFFFF" stroke-width="4" x1="0.5" y1="3.427" x2="23.25" y2="20.249"/>
	</g>
	<g>
		<line fill="none" stroke="#000000" stroke-width="2" x1="0.5" y1="3.427" x2="23.25" y2="20.249"/>
	</g>
</g>
-->
</svg>
