<?xml version="1.0" encoding="UTF-8"?>
<svg width="231px" height="231px" viewBox="0 0 231 231" version="1.1" xmlns="http://www.w3.org/2000/svg" xmlns:xlink="http://www.w3.org/1999/xlink">
    <!-- Generator: Sketch 62 (91390) - https://sketch.com -->
    <title>cash-drawer-front</title>
    <desc>Created with Sketch.</desc>
    
        <path d="M223,124 C227.418278,124 231,127.581722 231,132 L231,181 C231,185.418278 227.418278,189 223,189 L8,189 C3.581722,189 5.41083001e-16,185.418278 0,181 L0,132 C-5.41083001e-16,127.581722 3.581722,124 8,124 L223,124 Z M115.5,164 C111.357864,164 108,167.357864 108,171.5 C108,175.642136 111.357864,179 115.5,179 C119.642136,179 123,175.642136 123,171.5 C123,167.357864 119.642136,164 115.5,164 Z M212,146 L18,146 C15.790861,146 14,147.790861 14,150 L14,150 L14,153 C14,155.209139 15.790861,157 18,157 L18,157 L212,157 C214.209139,157 216,155.209139 216,153 L216,153 L216,150 C216,147.790861 214.209139,146 212,146 L212,146 Z" id="Combined-Shape" ></path>
        <polygon id="Path"  points="4.07980145 114.294372 37.4446565 44.2943717 191.849492 44.2943717 227.287086 114.294372"></polygon>
    
</svg>