<?xml version="1.0" encoding="UTF-8"?>
<svg width="141px" height="96px" viewBox="0 0 141 96" version="1.1" xmlns="http://www.w3.org/2000/svg" xmlns:xlink="http://www.w3.org/1999/xlink">
    <!-- Generator: Sketch 62 (91390) - https://sketch.com -->
    <title>cash-drawer</title>
    <desc>Created with Sketch.</desc>
    
        <polygon id="Path-Copy"  transform="translate(78.607179, 31.504813) scale(-1, 1) translate(-78.607179, -31.504813) " points="138.261704 23.4225409 81.0851808 0 18.9526541 34.1051379 77.9167215 63.0096253"></polygon>
        <polygon id="Path-2-Copy"  transform="translate(109.886188, 61.253730) scale(-1, 1) translate(-109.886188, -61.253730) " points="80.5106724 35 80.5106724 56.6399404 139.261704 87.5074597 139.261704 63.864717"></polygon>
        <polygon id="Path-3-Copy"  transform="translate(65.355737, 81.666895) scale(-1, 1) translate(-65.355737, -81.666895) " points="55.0206376 67.2589642 55.0206376 84.4964587 75.6908369 96.0748266 75.6908369 77.5985346"></polygon>
        <g id="Group" transform="translate(0.000000, 31.000000)" >
            <path d="M19.6701993,-1.77635684e-15 L19.6701993,17.2374944 L9.043,23.19 L0,16.416 L0,9.839 L19.6701993,-1.77635684e-15 Z" id="Combined-Shape"></path>
            <polygon id="Path-4-Copy" transform="translate(27.128773, 36.961051) scale(-1, 1) translate(-27.128773, -36.961051) " points="5.68434189e-14 47.1799121 54.2575458 9.27059265 54.2575458 24.5019503 5.68434189e-14 64.65151"></polygon>
        </g>
        <polygon id="Path-3-Copy-6"  transform="translate(55.000000, 64.500000) scale(-1, 1) translate(-55.000000, -64.500000) " points="47 59 47.4208794 61.8819024 63 70 63 66.8939351"></polygon>
        <polygon id="Path-3-Copy-7"  transform="translate(41.000000, 55.500000) scale(-1, 1) translate(-41.000000, -55.500000) " points="33 50 33.4208794 52.8819024 49 61 49 57.8939351"></polygon>
        <polygon id="Path-3-Copy-8"  transform="translate(29.000000, 47.500000) scale(-1, 1) translate(-29.000000, -47.500000) " points="21 42 21.4208794 44.8819024 37 53 37 49.8939351"></polygon>
    
</svg>