<?xml version="1.0" encoding="UTF-8"?>
<svg width="39px" height="39px" viewBox="0 0 39 39" version="1.1" xmlns="http://www.w3.org/2000/svg" xmlns:xlink="http://www.w3.org/1999/xlink">
    <title>routing-symbol</title>
    <g id="Page-1" stroke="none" stroke-width="1" fill="none" fill-rule="evenodd">
        <path d="M30.1811523,12.6977539 C30.3748372,12.6977539 30.5571289,12.6635742 30.7280273,12.5952148 C30.8989258,12.5268555 31.0470378,12.4243164 31.1723633,12.2875977 C31.309082,12.1508789 31.4116211,12.0027669 31.4799805,11.8432617 C31.5483398,11.6723633 31.5825195,11.4900716 31.5825195,11.2963867 L31.5825195,11.2963867 L31.5825195,4.03320312 C31.5825195,3.85091146 31.5483398,3.66861979 31.4799805,3.48632812 C31.4116211,3.31542969 31.309082,3.16731771 31.1723633,3.04199219 C31.0470378,2.91666667 30.8989258,2.81982422 30.7280273,2.75146484 C30.6368815,2.70589193 30.5457357,2.67456055 30.4545898,2.6574707 C30.363444,2.64038086 30.2722982,2.63183594 30.1811523,2.63183594 L30.1811523,2.63183594 L22.9350586,2.63183594 C22.8439128,2.63183594 22.7499186,2.64038086 22.6530762,2.6574707 C22.5562337,2.67456055 22.4679362,2.70589193 22.3881836,2.75146484 C22.308431,2.7742513 22.2315267,2.8112793 22.1574707,2.86254883 C22.0834147,2.91381836 22.012207,2.97363281 21.9438477,3.04199219 C21.8185221,3.16731771 21.7216797,3.31542969 21.6533203,3.48632812 C21.6191406,3.56608073 21.5906576,3.65437826 21.5678711,3.7512207 C21.5450846,3.84806315 21.5336914,3.94205729 21.5336914,4.03320312 L21.5336914,4.03320312 L21.5336914,11.2963867 C21.5336914,11.4900716 21.5678711,11.6723633 21.6362305,11.8432617 C21.7045898,12.0027669 21.8071289,12.1508789 21.9438477,12.2875977 C22.012207,12.355957 22.0834147,12.4157715 22.1574707,12.467041 C22.2315267,12.5183105 22.308431,12.5610352 22.3881836,12.5952148 C22.4679362,12.6293945 22.5562337,12.6550293 22.6530762,12.6721191 C22.7499186,12.689209 22.8439128,12.6977539 22.9350586,12.6977539 L22.9350586,12.6977539 L30.1811523,12.6977539 Z M12.0317383,29.0698242 C12.1114909,29.0698242 12.1883952,29.0612793 12.2624512,29.0441895 C12.3365072,29.0270996 12.4077148,29.0128581 12.4760742,29.0014648 C12.5444336,28.9786784 12.612793,28.947347 12.6811523,28.9074707 C12.7495117,28.8675944 12.8121745,28.8248698 12.8691406,28.7792969 C13.0172526,28.6539714 13.1311849,28.5058594 13.2109375,28.3349609 C13.2451172,28.2552083 13.2764486,28.1669108 13.3049316,28.0700684 C13.3334147,27.9732259 13.3476562,27.8735352 13.3476562,27.7709961 L13.3476562,27.7709961 L13.3476562,9.33105469 C13.3476562,9.17154948 13.3134766,9.00634766 13.2451172,8.83544922 C13.1767578,8.67594401 13.0799154,8.53352865 12.9545898,8.40820312 C12.8406576,8.2828776 12.7039388,8.19173177 12.5444336,8.13476562 C12.3735352,8.05501302 12.2026367,8.01513672 12.0317383,8.01513672 L12.0317383,8.01513672 L8.39160156,8.01513672 C8.31184896,8.01513672 8.22924805,8.02652995 8.14379883,8.04931641 C8.05834961,8.07210286 7.9757487,8.10058594 7.89599609,8.13476562 C7.72509766,8.203125 7.58268229,8.29427083 7.46875,8.40820312 C7.35481771,8.52213542 7.26367188,8.66455078 7.1953125,8.83544922 C7.12695312,9.00634766 7.09277344,9.17154948 7.09277344,9.33105469 L7.09277344,9.33105469 L7.09277344,27.7709961 C7.09277344,27.9418945 7.12695312,28.112793 7.1953125,28.2836914 C7.25227865,28.4318034 7.34342448,28.5685221 7.46875,28.6938477 C7.59407552,28.8191732 7.73649089,28.910319 7.89599609,28.9672852 C8.0555013,29.0356445 8.22070312,29.0698242 8.39160156,29.0698242 L8.39160156,29.0698242 L12.0317383,29.0698242 Z M30.1811523,34.6069336 C30.363444,34.6069336 30.5457357,34.5727539 30.7280273,34.5043945 C30.910319,34.4246419 31.058431,34.3277995 31.1723633,34.2138672 C31.2976888,34.0885417 31.4002279,33.9404297 31.4799805,33.7695312 C31.5483398,33.5872396 31.5825195,33.4049479 31.5825195,33.2226562 L31.5825195,33.2226562 L31.5825195,25.9423828 C31.5825195,25.7600911 31.5483398,25.5834961 31.4799805,25.4125977 C31.4116211,25.2416992 31.309082,25.0935872 31.1723633,24.9682617 C31.0470378,24.8429362 30.8989258,24.7403971 30.7280273,24.6606445 C30.6368815,24.6264648 30.5457357,24.5979818 30.4545898,24.5751953 C30.363444,24.5524089 30.2722982,24.5410156 30.1811523,24.5410156 L30.1811523,24.5410156 L22.9350586,24.5410156 C22.8439128,24.5410156 22.7499186,24.5524089 22.6530762,24.5751953 C22.5562337,24.5979818 22.4679362,24.6264648 22.3881836,24.6606445 C22.308431,24.6948242 22.2315267,24.7375488 22.1574707,24.7888184 C22.0834147,24.8400879 22.012207,24.8999023 21.9438477,24.9682617 C21.8185221,25.0935872 21.7216797,25.2416992 21.6533203,25.4125977 C21.6191406,25.4923503 21.5906576,25.5777995 21.5678711,25.6689453 C21.5450846,25.7600911 21.5336914,25.851237 21.5336914,25.9423828 L21.5336914,25.9423828 L21.5336914,33.2226562 C21.5336914,33.4049479 21.5678711,33.581543 21.6362305,33.7524414 C21.7045898,33.9233398 21.8071289,34.0771484 21.9438477,34.2138672 C22.0691732,34.3277995 22.2172852,34.4246419 22.3881836,34.5043945 C22.4679362,34.5385742 22.5562337,34.564209 22.6530762,34.5812988 C22.7499186,34.5983887 22.8439128,34.6069336 22.9350586,34.6069336 L22.9350586,34.6069336 L30.1811523,34.6069336 Z" id="a" fill="#005891" fill-rule="nonzero"></path>
    </g>
</svg>