<?xml version="1.0" encoding="UTF-8"?>
<svg width="39px" height="39px" viewBox="0 0 39 39" version="1.1" xmlns="http://www.w3.org/2000/svg" xmlns:xlink="http://www.w3.org/1999/xlink">
    <title>check-account-symbol</title>
    <g id="Page-1" stroke="none" stroke-width="1" fill="none" fill-rule="evenodd">
        <path d="M32.3955078,19.817627 C32.4931641,19.817627 32.5877686,19.8084717 32.6793213,19.7901611 C32.770874,19.7718506 32.859375,19.7504883 32.9448242,19.7260742 C33.0302734,19.7016602 33.1157227,19.6619873 33.2011719,19.6070557 C33.2866211,19.552124 33.3598633,19.4941406 33.4208984,19.4331055 C33.5673828,19.3110352 33.6711426,19.1706543 33.7321777,19.0119629 C33.817627,18.8532715 33.8603516,18.682373 33.8603516,18.4992676 L33.8603516,18.4992676 L33.8603516,6.45092773 C33.8603516,6.2800293 33.817627,6.10913086 33.7321777,5.93823242 C33.6467285,5.76733398 33.5429688,5.62695312 33.4208984,5.51708984 C33.2988281,5.40722656 33.1401367,5.31567383 32.9448242,5.24243164 C32.859375,5.20581055 32.770874,5.17834473 32.6793213,5.16003418 C32.5877686,5.14172363 32.4931641,5.13256836 32.3955078,5.13256836 L32.3955078,5.13256836 L24.5952148,5.13256836 C24.3999023,5.13256836 24.2106934,5.16308594 24.0275879,5.22412109 C23.8444824,5.29736328 23.6918945,5.39501953 23.5698242,5.51708984 C23.4355469,5.63916016 23.3317871,5.77954102 23.2585449,5.93823242 C23.2219238,6.01147461 23.1914062,6.09082031 23.1669922,6.17626953 C23.1425781,6.26171875 23.1303711,6.35327148 23.1303711,6.45092773 L23.1303711,6.45092773 L23.1303711,18.4992676 C23.1303711,18.5969238 23.1425781,18.6884766 23.1669922,18.7739258 C23.1914062,18.859375 23.2219238,18.9387207 23.2585449,19.0119629 C23.3317871,19.1828613 23.4355469,19.3232422 23.5698242,19.4331055 C23.6308594,19.4941406 23.7010498,19.552124 23.7803955,19.6070557 C23.8597412,19.6619873 23.9421387,19.7016602 24.0275879,19.7260742 C24.1130371,19.7504883 24.2045898,19.7718506 24.3022461,19.7901611 C24.3999023,19.8084717 24.4975586,19.817627 24.5952148,19.817627 L24.5952148,19.817627 L32.3955078,19.817627 Z M16.8498535,31.6279297 C17.057373,31.6279297 17.2557373,31.5913086 17.4449463,31.5180664 C17.6341553,31.4448242 17.7958984,31.3410645 17.9301758,31.2067871 C18.0644531,31.0847168 18.1743164,30.9382324 18.2597656,30.767334 C18.3452148,30.5964355 18.3879395,30.4133301 18.3879395,30.2180176 L18.3879395,30.2180176 L18.3879395,10.4609375 C18.3879395,10.265625 18.3452148,10.0825195 18.2597656,9.91162109 C18.1743164,9.74072266 18.0644531,9.59423828 17.9301758,9.47216797 C17.7958984,9.33789062 17.6341553,9.23413086 17.4449463,9.16088867 C17.2557373,9.08764648 17.057373,9.05102539 16.8498535,9.05102539 C16.630127,9.05102539 16.4287109,9.08764648 16.2456055,9.16088867 C16.0625,9.23413086 15.8977051,9.33789062 15.7512207,9.47216797 C15.6169434,9.59423828 15.5101318,9.74072266 15.4307861,9.91162109 C15.3514404,10.0825195 15.3117676,10.265625 15.3117676,10.4609375 L15.3117676,10.4609375 L15.3117676,30.2180176 C15.3117676,30.4133301 15.3514404,30.5964355 15.4307861,30.767334 C15.5101318,30.9382324 15.6169434,31.0847168 15.7512207,31.2067871 C15.8977051,31.3410645 16.0625,31.4448242 16.2456055,31.5180664 C16.4287109,31.5913086 16.630127,31.6279297 16.8498535,31.6279297 Z M9.01293945,31.6279297 C9.23266602,31.6279297 9.43408203,31.5913086 9.6171875,31.5180664 C9.80029297,31.4448242 9.95898438,31.3410645 10.0932617,31.2067871 C10.2397461,31.0847168 10.3526611,30.9382324 10.4320068,30.767334 C10.5113525,30.5964355 10.5510254,30.4133301 10.5510254,30.2180176 L10.5510254,30.2180176 L10.5510254,10.4609375 C10.5510254,10.265625 10.5113525,10.0825195 10.4320068,9.91162109 C10.3526611,9.74072266 10.2397461,9.59423828 10.0932617,9.47216797 C9.95898438,9.33789062 9.80029297,9.23413086 9.6171875,9.16088867 C9.43408203,9.08764648 9.23266602,9.05102539 9.01293945,9.05102539 C8.79321289,9.05102539 8.59179688,9.08764648 8.40869141,9.16088867 C8.22558594,9.23413086 8.06689453,9.33789062 7.93261719,9.47216797 C7.78613281,9.59423828 7.67321777,9.74072266 7.59387207,9.91162109 C7.51452637,10.0825195 7.47485352,10.265625 7.47485352,10.4609375 L7.47485352,10.4609375 L7.47485352,30.2180176 C7.47485352,30.4133301 7.51452637,30.5964355 7.59387207,30.767334 C7.67321777,30.9382324 7.78613281,31.0847168 7.93261719,31.2067871 C8.06689453,31.3410645 8.22558594,31.4448242 8.40869141,31.5180664 C8.59179688,31.5913086 8.79321289,31.6279297 9.01293945,31.6279297 Z" id="c" fill="#005891" fill-rule="nonzero"></path>
    </g>
</svg>