<?xml version="1.0" encoding="UTF-8"?>
<svg width="98px" height="94px" viewBox="0 0 98 94" version="1.1" xmlns="http://www.w3.org/2000/svg" xmlns:xlink="http://www.w3.org/1999/xlink">
    <!-- Generator: Sketch 58 (84663) - https://sketch.com -->
    <title>device</title>
    <desc>Created with Sketch.</desc>
    <g id="Page-1" stroke="none" stroke-width="1" fill-rule="evenodd">
        <g id="DeviceIcon" transform="translate(10.000000, 11.000000)" fill-rule="nonzero">
            <path d="M71.8181818,0 L7.18181818,0 C3.23181818,0 0,3.24 0,7.2 L0,50.4 C0,54.36 3.23181818,57.6 7.18181818,57.6 L32.3181818,57.6 L32.3181818,64.8 L25.1363636,64.8 L25.1363636,72 L53.8636364,72 L53.8636364,64.8 L46.6818182,64.8 L46.6818182,57.6 L71.8181818,57.6 C75.7681818,57.6 79,54.36 79,50.4 L79,7.2 C79,3.24 75.7681818,0 71.8181818,0 Z M71.8181818,50.4 L7.18181818,50.4 L7.18181818,7.2 L71.8181818,7.2 L71.8181818,50.4 Z" id="Shape"></path>
        </g>
    </g>
</svg>