<?xml version="1.0" encoding="UTF-8"?>
<svg width="128px" height="105px" viewBox="0 0 128 105" version="1.1" xmlns="http://www.w3.org/2000/svg" xmlns:xlink="http://www.w3.org/1999/xlink">
    <!-- Generator: Sketch 62 (91390) - https://sketch.com -->
    <title>nu-till-icon</title>
    <desc>Created with Sketch.</desc>
    <g id="Page-1" stroke="none" stroke-width="1" fill-rule="evenodd">
        <g id="TillIcon">
            <g id="Group" transform="translate(27.000000, 35.000000) rotate(-90.000000) translate(-27.000000, -35.000000) translate(9.000000, 23.000000)" fill-rule="nonzero">
                <path d="M0,0 L36,0 L36,24 L0,24 L0,0 M18,6 C21.3137085,6 24,8.6862915 24,12 C24,15.3137085 21.3137085,18 18,18 C14.6862915,18 12,15.3137085 12,12 C12,8.6862915 14.6862915,6 18,6 M8,4 C8,6.209139 6.209139,8 4,8 L4,16 C6.209139,16 8,17.790861 8,20 L28,20 C28,17.790861 29.790861,16 32,16 L32,8 C29.790861,8 28,6.209139 28,4 L8,4 Z" id="Shape"></path>
            </g>
            <g id="Group-Copy" transform="translate(64.000000, 35.000000) rotate(-90.000000) translate(-64.000000, -35.000000) translate(46.000000, 23.000000)" fill-rule="nonzero">
                <path d="M0,0 L36,0 L36,24 L0,24 L0,0 M18,6 C21.3137085,6 24,8.6862915 24,12 C24,15.3137085 21.3137085,18 18,18 C14.6862915,18 12,15.3137085 12,12 C12,8.6862915 14.6862915,6 18,6 M8,4 C8,6.209139 6.209139,8 4,8 L4,16 C6.209139,16 8,17.790861 8,20 L28,20 C28,17.790861 29.790861,16 32,16 L32,8 C29.790861,8 28,6.209139 28,4 L8,4 Z" id="Shape"></path>
            </g>
            <g id="Group-Copy-2" transform="translate(102.000000, 35.000000) rotate(-90.000000) translate(-102.000000, -35.000000) translate(84.000000, 23.000000)" fill-rule="nonzero">
                <path d="M0,0 L36,0 L36,24 L0,24 L0,0 M18,6 C21.3137085,6 24,8.6862915 24,12 C24,15.3137085 21.3137085,18 18,18 C14.6862915,18 12,15.3137085 12,12 C12,8.6862915 14.6862915,6 18,6 M8,4 C8,6.209139 6.209139,8 4,8 L4,16 C6.209139,16 8,17.790861 8,20 L28,20 C28,17.790861 29.790861,16 32,16 L32,8 C29.790861,8 28,6.209139 28,4 L8,4 Z" id="Shape"></path>
            </g>
            <path d="M115,0 C122.179702,-1.31888981e-15 128,5.82029825 128,13 L128,92 C128,99.1797017 122.179702,105 115,105 L13,105 C5.82029825,105 8.79259876e-16,99.1797017 0,92 L0,13 C-8.79259876e-16,5.82029825 5.82029825,1.31888981e-15 13,0 L115,0 Z M43,64 L9,64 L9,86 L43,86 L43,64 Z M81,64 L47,64 L47,86 L81,86 L81,64 Z M119,64 L85,64 L85,86 L119,86 L119,64 Z M43,10 L9,10 L9,61 L43,61 L43,10 Z M81,10 L47,10 L47,61 L81,61 L81,10 Z M119,10 L85,10 L85,61 L119,61 L119,10 Z" id="Combined-Shape"></path>
        </g>
    </g>
</svg>