<?xml version="1.0" encoding="UTF-8"?>
<svg width="358px" height="428px" viewBox="0 0 358 428" version="1.1" xmlns="http://www.w3.org/2000/svg" xmlns:xlink="http://www.w3.org/1999/xlink">
    <!-- Generator: Sketch 62 (91390) - https://sketch.com -->
    <title>pin-pad</title>
    <desc>Created with Sketch.</desc>
        <rect id="Rectangle" stroke="#000000" stroke-width="20" x="89" y="336" width="172" height="82" rx="8"></rect>
        <path d="M300,0 C304.418278,-8.11624501e-16 308,3.581722 308,8 L308,350 C308,354.418278 304.418278,358 300,358 L49,358 C44.581722,358 41,354.418278 41,350 L41,8 C41,3.581722 44.581722,8.11624501e-16 49,0 L300,0 Z M128,279 L84,279 C79.581722,279 76,282.581722 76,287 L76,287 L76,310 C76,314.418278 79.581722,318 84,318 L84,318 L128,318 C132.418278,318 136,314.418278 136,310 L136,310 L136,287 C136,282.581722 132.418278,279 128,279 L128,279 Z M196,279 L152,279 C147.581722,279 144,282.581722 144,287 L144,287 L144,310 C144,314.418278 147.581722,318 152,318 L152,318 L196,318 C200.418278,318 204,314.418278 204,310 L204,310 L204,287 C204,282.581722 200.418278,279 196,279 L196,279 Z M265,279 L221,279 C216.581722,279 213,282.581722 213,287 L213,287 L213,310 C213,314.418278 216.581722,318 221,318 L221,318 L265,318 C269.418278,318 273,314.418278 273,310 L273,310 L273,287 C273,282.581722 269.418278,279 265,279 L265,279 Z M130,228 L86,228 C81.581722,228 78,231.581722 78,236 L78,236 L78,259 C78,263.418278 81.581722,267 86,267 L86,267 L130,267 C134.418278,267 138,263.418278 138,259 L138,259 L138,236 C138,231.581722 134.418278,228 130,228 L130,228 Z M198,228 L154,228 C149.581722,228 146,231.581722 146,236 L146,236 L146,259 C146,263.418278 149.581722,267 154,267 L154,267 L198,267 C202.418278,267 206,263.418278 206,259 L206,259 L206,236 C206,231.581722 202.418278,228 198,228 L198,228 Z M267,228 L223,228 C218.581722,228 215,231.581722 215,236 L215,236 L215,259 C215,263.418278 218.581722,267 223,267 L223,267 L267,267 C271.418278,267 275,263.418278 275,259 L275,259 L275,236 C275,231.581722 271.418278,228 267,228 L267,228 Z M130,178 L86,178 C81.581722,178 78,181.581722 78,186 L78,186 L78,209 C78,213.418278 81.581722,217 86,217 L86,217 L130,217 C134.418278,217 138,213.418278 138,209 L138,209 L138,186 C138,181.581722 134.418278,178 130,178 L130,178 Z M198,178 L154,178 C149.581722,178 146,181.581722 146,186 L146,186 L146,209 C146,213.418278 149.581722,217 154,217 L154,217 L198,217 C202.418278,217 206,213.418278 206,209 L206,209 L206,186 C206,181.581722 202.418278,178 198,178 L198,178 Z M267,178 L223,178 C218.581722,178 215,181.581722 215,186 L215,186 L215,209 C215,213.418278 218.581722,217 223,217 L223,217 L267,217 C271.418278,217 275,213.418278 275,209 L275,209 L275,186 C275,181.581722 271.418278,178 267,178 L267,178 Z M268,27 L86,27 C81.581722,27 78,30.581722 78,35 L78,35 L78,132 C78,136.418278 81.581722,140 86,140 L86,140 L268,140 C272.418278,140 276,136.418278 276,132 L276,132 L276,35 C276,30.581722 272.418278,27 268,27 L268,27 Z" id="Combined-Shape" ></path>
</svg>