<?xml version="1.0" encoding="UTF-8"?>
<svg width="408px" height="377px" viewBox="0 0 408 377" version="1.1" xmlns="http://www.w3.org/2000/svg" xmlns:xlink="http://www.w3.org/1999/xlink">
    <title>Combined Shape</title>
    <g id="Page-1" stroke="none" stroke-width="1" fill="none" fill-rule="evenodd">
        <path d="M219.5,0 C323.605675,0 408,84.3943247 408,188.5 C408,292.605675 323.605675,377 219.5,377 C164.744042,377 115.441019,353.653209 81.0024759,316.371172 L110.312359,291.77731 C137.83567,320.858118 176.799203,339 220,339 C303.394997,339 371,271.394997 371,188 C371,104.605003 303.394997,37 220,37 C148.296395,37 88.2658295,86.9782242 72.8433709,153.999606 L110,154 L55,264 L1.42108547e-14,154 L34.1504238,153.997819 C50.3591568,66.3691616 127.178904,0 219.5,0 Z M214.927176,96.8724529 L226.470193,179.005287 L291.328924,261.259185 L269.161135,279.602864 L199.519728,190.407027 L186.927346,100.807572 L214.927176,96.8724529 Z" id="Combined-Shape" fill="#000000"></path>
    </g>
</svg>