<svg id="Layer_1" data-name="Layer 1" xmlns="http://www.w3.org/2000/svg" viewBox="0 0 512 512"><defs><style>.cls-1{fill:#141f38;}</style></defs><title>coins-2-glyph</title><path class="cls-1" d="M243.21,92.82c26-8.88,64.74-16,115.19-16,99.38,0,153.6,27.67,153.6,41.89s-54.22,41.89-153.6,41.89c-12.1,0-23.5-.42-34.24-1.17A192.65,192.65,0,0,0,243.21,92.82ZM355.8,300.19A190.58,190.58,0,0,1,349,328c3.11.06,6.23.1,9.36.1,61.49,0,119.22-10.68,153.6-28.15V274.8c-38.66,16.09-93.92,25.42-153.6,25.42Zm-18.2,55.49a192.09,192.09,0,0,1-16.71,27.1c11.86.78,24.36,1.22,37.5,1.22,74.08,0,128.76-13.49,153.6-27.93V330.65c-38.66,16.09-93.92,25.42-153.6,25.42Q347.9,356.07,337.6,355.68ZM356.8,244.35a193.6,193.6,0,0,1,1.6,24.45c0,1.17-.07,2.33-.09,3.49h.09c61.49,0,119.22-10.68,153.6-28.15v-25.2c-38.66,16.09-93.92,25.42-153.6,25.42Zm-16.15-56.18a190.59,190.59,0,0,1,10.44,28.19c2.43,0,4.86.08,7.31.08,61.49,0,119.22-10.68,153.6-28.15V157.69c-33.91,20.33-94,30.82-153.6,30.82C352.48,188.51,346.55,188.38,340.65,188.17ZM332.8,268.8A166.4,166.4,0,1,1,166.4,102.4,166.4,166.4,0,0,1,332.8,268.8ZM216.74,292.66c.74-16-7.27-25.72-15.66-30.76A36.37,36.37,0,0,0,191,257.61a129.81,129.81,0,0,0-21.25-3.54c-14.35-1.49-22.18-4.1-22.18-11,0-8,5.59-10.81,18.83-10.81,10.25,0,15.1,3.54,18.82,10.81,2.8,5.22,5.22,6,10.26,3.73L208.35,241c5.78-2.42,7.09-5.22,4.29-10.44-6.34-13.61-17-21.62-32.06-24.23v-7.65c0-5-1.68-6.71-6.9-6.71H159.51c-5,0-6.9,1.68-6.9,6.71v7.65C129.5,210.08,117,223.5,117,243.08c0,12.11,4.85,21.62,10.63,26.65a32.34,32.34,0,0,0,11.55,6.52c9.51,3.73,14.92,4.28,25.36,5.59,14.72,1.49,22,3.91,22,11.37,0,8-7.08,11.94-21.25,11.94-10.63,0-17.52-3.73-20.51-11.37-2.42-5.4-5-6.53-10.44-4.48l-12.68,4.48q-7.54,2.79-5,10.06c5.77,15.29,17.7,24.42,36,27.22v7.64c0,5.22,1.86,6.9,6.9,6.9h14.17c5.22,0,6.9-1.68,6.9-6.9v-8C203.69,326.4,216.74,312.6,216.74,292.66Z"/></svg>